C:/Users/Samuel/Documents/FFMPEG/bin/ffmpeg.exe -hide_banner -y -y -r 24 -start_number 0 -start_number_range 1 -i D:/Apps/Friday Night Funkin/MODDING/Kade-Engine-1.6/Kade-Engine-1.6/assets/exclude/OLD NOTES/frame%04d.png -i D:/Apps/Friday Night Funkin/MODDING/Kade-Engine-1.6/Kade-Engine-1.6/assets/exclude/OLD NOTES/KritaTempPalettegen_%06d.png -lavfi [0:v][1:v]paletteuse=dither=sierra2_4a:diff_mode=none -f gif -loop 0 -gifflags +transdiff D:/Apps/Friday Night Funkin/MODDING/Kade-Engine-1.6/Kade-Engine-1.6/assets/exclude/OLD NOTES/TMG Notes Redone Animations.gif
=====================================================
Input #0, image2, from 'D:/Apps/Friday Night Funkin/MODDING/Kade-Engine-1.6/Kade-Engine-1.6/assets/exclude/OLD NOTES/frame%04d.png':
  Duration: 00:00:05.60, start: 0.000000, bitrate: N/A
  Stream #0:0: Video: png, rgba(pc), 240x240 [SAR 2834:2834 DAR 1:1], 25 fps, 25 tbr, 25 tbn
Input #1, image2, from 'D:/Apps/Friday Night Funkin/MODDING/Kade-Engine-1.6/Kade-Engine-1.6/assets/exclude/OLD NOTES/KritaTempPalettegen_%06d.png':
  Duration: 00:00:00.04, start: 0.000000, bitrate: N/A
  Stream #1:0: Video: png, rgba(pc), 16x16 [SAR 1:1 DAR 1:1], 25 fps, 25 tbr, 25 tbn
Stream mapping:
  Stream #0:0 (png) -> paletteuse
  Stream #1:0 (png) -> paletteuse
  paletteuse:default -> Stream #0:0 (gif)
Press [q] to stop, [?] for help
[image2 @ 000001b709e6be80] Thread message queue blocking; consider raising the thread_queue_size option (current value: 8)
Output #0, gif, to 'D:/Apps/Friday Night Funkin/MODDING/Kade-Engine-1.6/Kade-Engine-1.6/assets/exclude/OLD NOTES/TMG Notes Redone Animations.gif':
  Metadata:
    encoder         : Lavf60.3.100
  Stream #0:0: Video: gif, pal8(pc, gbr/unknown/unknown, progressive), 240x240 [SAR 1:1 DAR 1:1], q=2-31, 200 kb/s, 24 fps, 100 tbn
    Metadata:
      encoder         : Lavc60.3.100 gif
frame=    0 fps=0.0 q=-0.0 size=       0kB time=00:00:00.00 bitrate=N/A speed=   0x    frame=  140 fps=0.0 q=-0.0 Lsize=     564kB time=00:00:05.79 bitrate= 798.6kbits/s speed=  17x    
video:564kB audio:0kB subtitle:0kB other streams:0kB global headers:0kB muxing overhead: 0.003460%
